<svg width="162" height="130" viewBox="0 0 162 130" fill="none" xmlns="http://www.w3.org/2000/svg">
<path d="M55.7957 0H125.973V26.4601H70.4638L55.7957 0Z" fill="white"/>
<rect x="51.1946" y="51.7686" width="79.3804" height="26.4601" rx="13.2301" fill="white"/>
<path d="M100.375 78.23L132.013 77.0796L160.198 129.425H130.287L100.375 78.23Z" fill="white"/>
<path d="M58.6724 116.77C58.6724 109.463 64.5957 103.54 71.9024 103.54H106.991L121.947 130H71.9024C64.5957 130 58.6724 124.077 58.6724 116.77Z" fill="white"/>
<path d="M47.7433 2.01318C39.6902 3.45124 42.2952 3.00798 34.7193 7.02225C27.1435 11.0365 20.4325 16.5037 14.9695 23.1115C9.50651 29.7194 5.39853 37.3386 2.88011 45.534C0.361691 53.7295 -0.517854 62.3407 0.291696 70.8761C1.10125 79.4115 3.58404 87.7038 7.59831 95.2797C11.6126 102.856 17.0797 109.567 23.6876 115.03C30.2954 120.493 37.9146 124.601 46.1101 127.119C54.3055 129.637 62.9168 130.517 71.4522 129.707L68.9756 103.596C63.8692 104.081 58.7174 103.555 53.8143 102.048C48.9112 100.541 44.3529 98.0835 40.3996 94.8152C36.4463 91.5469 33.1755 87.5319 30.7739 82.9995C28.3723 78.4671 26.8869 73.506 26.4026 68.3996C25.9183 63.2931 26.4445 58.1413 27.9512 53.2382C29.4579 48.3351 31.9155 43.7768 35.1839 39.8236C38.4522 35.8703 42.4672 32.5995 46.9996 30.1979C51.532 27.7962 56.493 26.3109 61.5994 25.8265L47.7433 2.01318Z" fill="white"/>
<path d="M117.407 77.9657C122.64 78.5772 127.944 78.125 132.998 76.6362C138.053 75.1473 142.755 72.6525 146.821 69.3015C150.888 65.9505 154.236 61.8124 156.663 57.1355C159.091 52.4587 160.548 47.3396 160.949 42.0854C161.349 36.8313 160.683 31.5505 158.992 26.5599C157.3 21.5694 154.618 16.972 151.106 13.0438C147.594 9.11561 143.324 5.93754 138.553 3.70036C133.782 1.46318 128.609 0.213021 123.343 0.0249277L122.4 26.4232C124.11 26.4842 125.789 26.8902 127.338 27.6165C128.887 28.3429 130.274 29.3748 131.414 30.6502C132.554 31.9256 133.425 33.4183 133.974 35.0386C134.524 36.6589 134.74 38.3735 134.61 40.0794C134.48 41.7854 134.007 43.4475 133.218 44.9659C132.43 46.4844 131.343 47.828 130.023 48.916C128.703 50.004 127.176 50.814 125.535 51.2974C123.894 51.7808 122.172 51.9277 120.473 51.7291L117.407 77.9657Z" fill="white"/>
</svg>
